   <svg
            preserveAspectRatio="xMidYMid meet"
            data-bbox="159.96 404.44 275.35 43.99"
            viewBox="159.96 404.44 275.35 43.99"
            xmlns="http://www.w3.org/2000/svg"
            data-type="color"
            role="presentation"
            aria-hidden="true"
            aria-label="Company Logo"
            className="w-[200px] h-[200px]"
          >
            <g>
              <path
                fill="#ee2e3a"
                d="M271.79 438.93v9.46H159.96v-9.46h111.83z"
                data-color="1"
              ></path>
              <path
                d="M167.88 432.28H160v-27.83h13.79c2.33 0 4.24.34 5.72 1.02 1.48.68 2.55 1.56 3.21 2.65.66 1.09.99 2.27.99 3.54 0 .99-.22 1.93-.67 2.84-.45.91-1.11 1.69-2 2.34-.88.65-1.91 1.07-3.08 1.28l7.4 14.17h-8.86l-7.96-15.03h3.07c1.44 0 2.58-.55 3.44-1.64.86-1.1 1.29-2.41 1.29-3.95 0-1-.19-1.93-.58-2.8-.38-.86-.93-1.55-1.65-2.07-.72-.51-1.55-.77-2.5-.77h-3.75v26.25z"
                fill="#243e87"
                data-color="2"
              ></path>
              <path
                d="M208.86 407.44h-12.17v9.01h11.78v3h-11.78v9.82h12.57v3h-20.45v-27.83h20.05v3z"
                fill="#243e87"
                data-color="2"
              ></path>
              <path
                d="M240.74 418.34c0 1.91-.33 3.71-1 5.39a13.23 13.23 0 0 1-2.9 4.45c-1.27 1.28-2.81 2.28-4.62 3.01-1.81.72-3.84 1.09-6.1 1.09h-12.08v-27.83h12.08c2.23 0 4.26.36 6.08 1.08 1.82.72 3.36 1.7 4.62 2.96 1.26 1.26 2.23 2.74 2.9 4.45.68 1.7 1.02 3.51 1.02 5.4zm-18.81 10.94h4.21c1.19 0 2.23-.28 3.1-.84.88-.56 1.6-1.34 2.17-2.34.57-1 .99-2.16 1.26-3.47s.4-2.75.4-4.3c0-1.49-.14-2.89-.42-4.21-.28-1.32-.71-2.48-1.27-3.47-.56-.99-1.29-1.78-2.16-2.35-.88-.58-1.91-.86-3.08-.86h-4.21v21.84z"
                fill="#243e87"
                data-color="2"
              ></path>
              <path
                d="M253.93 404.45h5.9l11.8 27.83h-8.19l-3.54-8.26h-11.22l-3.5 8.26h-3.08l11.83-27.83zm.38 6.34l-4.36 10.23h8.73l-4.37-10.23z"
                fill="#243e87"
                data-color="2"
              ></path>
              <path
                d="M280.95 448.15v-15.73h3.18v6.19h6.22v-6.19h3.18v15.73h-3.18v-6.88h-6.22v6.88h-3.18z"
                fill="#243e87"
                data-color="2"
              ></path>
              <path
                d="M299.04 440.23l-2.74-.49c.31-1.1.84-1.92 1.59-2.45.75-.53 1.87-.79 3.35-.79 1.34 0 2.35.16 3 .48.66.32 1.12.72 1.39 1.21.27.49.4 1.39.4 2.7l-.03 3.52c0 1 .05 1.74.14 2.22.1.48.28.99.54 1.53h-2.98c-.08-.2-.18-.5-.29-.89-.05-.18-.09-.3-.11-.35-.52.5-1.07.88-1.65 1.13-.59.25-1.21.38-1.88.38-1.17 0-2.1-.32-2.77-.95s-1.01-1.44-1.01-2.41c0-.64.15-1.22.46-1.72.31-.5.74-.89 1.29-1.16.55-.27 1.35-.5 2.4-.7 1.41-.26 2.39-.51 2.93-.74v-.3c0-.58-.14-.99-.43-1.24s-.83-.37-1.62-.37c-.54 0-.95.11-1.26.32-.29.17-.53.54-.72 1.07zm4.04 2.45c-.39.13-1 .28-1.83.46-.84.18-1.38.35-1.64.53-.39.28-.59.63-.59 1.06 0 .42.16.79.47 1.09.31.31.72.46 1.2.46.54 0 1.06-.18 1.56-.54.36-.27.6-.6.72-1 .08-.26.12-.75.12-1.47v-.59z"
                fill="#243e87"
                data-color="2"
              ></path>
              <path
                d="M307.8 448.15v-2.35l4.27-4.9c.7-.8 1.22-1.37 1.56-1.71-.35.02-.81.04-1.38.04l-4.02.02v-2.5h9.42v2.14l-4.36 5.02-1.53 1.66c.84-.05 1.36-.07 1.56-.07h4.67v2.65H307.8z"
                fill="#243e87"
                data-color="2"
              ></path>
              <path
                d="M322.25 440.23l-2.74-.49c.31-1.1.84-1.92 1.59-2.45.75-.53 1.87-.79 3.35-.79 1.34 0 2.35.16 3 .48.66.32 1.12.72 1.39 1.21.27.49.4 1.39.4 2.7l-.03 3.52c0 1 .05 1.74.14 2.22.1.48.28.99.54 1.53h-2.98c-.08-.2-.18-.5-.29-.89-.05-.18-.09-.3-.11-.35-.52.5-1.07.88-1.65 1.13-.59.25-1.21.38-1.88.38-1.17 0-2.1-.32-2.77-.95-.68-.64-1.01-1.44-1.01-2.41 0-.64.15-1.22.46-1.72.31-.5.74-.89 1.29-1.16.55-.27 1.35-.5 2.4-.7 1.41-.26 2.39-.51 2.93-.74v-.3c0-.58-.14-.99-.43-1.24s-.83-.37-1.62-.37c-.54 0-.95.11-1.26.32-.29.17-.53.54-.72 1.07zm4.04 2.45c-.39.13-1 .28-1.83.46-.84.18-1.38.35-1.64.53-.39.28-.59.63-.59 1.06 0 .42.16.79.47 1.09.31.31.72.46 1.2.46.54 0 1.06-.18 1.56-.54.36-.27.6-.6.72-1 .08-.26.12-.75.12-1.47v-.59z"
                fill="#243e87"
                data-color="2"
              ></path>
              <path
                d="M335.1 448.15h-3.01v-11.39h2.8v1.62c.48-.77.91-1.27 1.29-1.51s.82-.36 1.3-.36c.69 0 1.35.19 1.98.57l-.93 2.63c-.51-.33-.98-.49-1.42-.49-.42 0-.78.12-1.07.35-.29.23-.52.65-.69 1.26-.17.61-.25 1.88-.25 3.82v3.5z"
                fill="#243e87"
                data-color="2"
              ></path>
              <path
                d="M351.22 448.15h-2.8v-1.67c-.47.65-1.01 1.14-1.65 1.45-.63.32-1.27.48-1.92.48-1.31 0-2.43-.53-3.36-1.58-.93-1.05-1.4-2.53-1.4-4.42 0-1.93.45-3.4 1.36-4.4.91-1 2.06-1.51 3.44-1.51 1.27 0 2.37.53 3.3 1.59v-5.66h3.01v15.72zm-8.05-5.95c0 1.22.17 2.1.5 2.64.49.79 1.17 1.18 2.04 1.18.69 0 1.28-.29 1.77-.89.49-.59.73-1.47.73-2.64 0-1.31-.24-2.25-.71-2.83-.47-.58-1.08-.86-1.81-.86-.72 0-1.31.28-1.8.85-.48.58-.72 1.43-.72 2.55z"
                fill="#243e87"
                data-color="2"
              ></path>
              <path
                d="M370.38 442.37l3.08.98c-.47 1.72-1.26 2.99-2.36 3.82-1.1.83-2.49 1.25-4.18 1.25-2.09 0-3.81-.71-5.15-2.14-1.34-1.43-2.02-3.38-2.02-5.85 0-2.62.68-4.65 2.03-6.1 1.35-1.45 3.13-2.17 5.33-2.17 1.92 0 3.49.57 4.69 1.71.72.67 1.25 1.64 1.61 2.9l-3.14.75c-.19-.82-.57-1.46-1.16-1.93s-1.31-.71-2.15-.71c-1.17 0-2.11.42-2.84 1.26-.73.84-1.09 2.19-1.09 4.07 0 1.99.36 3.4 1.07 4.25.72.84 1.65 1.27 2.79 1.27.84 0 1.57-.27 2.18-.8.61-.57 1.05-1.41 1.31-2.56z"
                fill="#243e87"
                data-color="2"
              ></path>
              <path
                d="M375.47 442.29c0-1 .25-1.97.74-2.91.49-.94 1.19-1.65 2.1-2.15.9-.49 1.92-.74 3.03-.74 1.72 0 3.14.56 4.24 1.68 1.1 1.12 1.65 2.53 1.65 4.24 0 1.72-.56 3.15-1.67 4.29-1.11 1.13-2.51 1.7-4.2 1.7-1.04 0-2.04-.24-2.99-.71a4.78 4.78 0 0 1-2.16-2.08c-.5-.9-.74-2.01-.74-3.32zm3.09.16c0 1.13.27 2 .8 2.6.54.6 1.2.9 1.98.9.79 0 1.45-.3 1.98-.9.53-.6.8-1.47.8-2.62 0-1.12-.27-1.97-.8-2.58-.53-.6-1.19-.9-1.98-.9s-1.45.3-1.98.9-.8 1.47-.8 2.6z"
                fill="#243e87"
                data-color="2"
              ></path>
              <path
                d="M399.95 448.15h-3.01v-5.82c0-1.23-.06-2.03-.19-2.39-.13-.36-.34-.64-.63-.84-.29-.2-.64-.3-1.05-.3-.52 0-.99.14-1.41.43-.41.29-.7.67-.85 1.14-.15.47-.23 1.35-.23 2.62v5.16h-3.01v-11.39h2.8v1.67c.99-1.29 2.25-1.93 3.76-1.93.67 0 1.27.12 1.82.36s.97.55 1.25.92.48.79.59 1.27c.11.47.17 1.15.17 2.03v7.07z"
                fill="#243e87"
                data-color="2"
              ></path>
              <path
                d="M408.23 436.75v2.4h-2.06v4.59c0 .93.02 1.47.06 1.63.04.15.13.28.27.38.14.1.31.15.51.15.28 0 .68-.1 1.21-.29l.26 2.34c-.7.30-1.49.45-2.38.45-.54 0-1.03-.09-1.47-.27-.44-.18-.76-.42-.96-.71-.20-.29-.35-.68-.42-1.17-.06-.35-.10-1.06-.10-2.12v-4.97h-1.38v-2.4h1.38v-2.26l3.03-1.76v4.02h2.05z"
                fill="#243e87"
                data-color="2"
              ></path>
              <path
                d="M413.21 448.15h-3.01v-11.39h2.8v1.62c.48-.77.91-1.27 1.29-1.51s.82-.36 1.3-.36c.69 0 1.35.19 1.98.57l-.93 2.63c-.51-.33-.98-.49-1.42-.49-.42 0-.78.12-1.07.35-.29.23-.52.65-.69 1.26-.17.61-.25 1.88-.25 3.82v3.5z"
                fill="#243e87"
                data-color="2"
              ></path>
              <path
                d="M418.18 442.29c0-1 .25-1.97.74-2.91.49-.94 1.19-1.65 2.1-2.15.9-.49 1.92-.74 3.03-.74 1.72 0 3.14.56 4.24 1.68 1.1 1.12 1.65 2.53 1.65 4.24 0 1.72-.56 3.15-1.67 4.29-1.11 1.13-2.51 1.7-4.2 1.7-1.04 0-2.04-.24-2.99-.71a4.78 4.78 0 0 1-2.16-2.08c-.49-.9-.74-2.01-.74-3.32zm3.09.16c0 1.13.27 2 .8 2.6.54.6 1.2.9 1.98.9.79 0 1.45-.3 1.98-.9.53-.6.8-1.47.8-2.62 0-1.12-.27-1.97-.8-2.58-.53-.6-1.19-.9-1.98-.9s-1.45.3-1.98.9-.8 1.47-.8 2.6z"
                fill="#243e87"
                data-color="2"
              ></path>
              <path
                d="M432.3 448.15v-15.73h3.01v15.73h-3.01z"
                fill="#243e87"
                data-color="2"
              ></path>
            </g>
          </svg>