<svg preserveAspectRatio="xMidYMid meet" data-bbox="28.24 377.5 538.53 85.99" viewBox="28.24 377.5 538.53 85.99" xmlns="http://www.w3.org/2000/svg" data-type="color" role="presentation" aria-hidden="true" aria-label=""><defs><style>#comp-kejljab9 svg [data-color="1"] {fill: #FFFFFF;}</style></defs>
    <g>
        <path fill="#ffffff" d="M246.96 444.95v18.51H28.24v-18.51h218.72z" data-color="1"></path>
        <path d="M43.72 431.93H28.31V377.5h26.98c4.57 0 8.3.66 11.19 1.99 2.9 1.33 4.99 3.06 6.28 5.19 1.29 2.13 1.94 4.44 1.94 6.92 0 1.93-.44 3.78-1.32 5.56-.88 1.78-2.18 3.3-3.91 4.57-1.73 1.27-3.73 2.1-6.02 2.5l14.47 27.7H60.6l-15.56-29.4h6.01c2.81 0 5.05-1.07 6.73-3.21s2.52-4.72 2.52-7.72c0-1.95-.38-3.78-1.13-5.47-.75-1.69-1.83-3.04-3.23-4.04s-3.03-1.5-4.89-1.5h-7.33v51.34z" fill="#ffffff" data-color="1"></path>
        <path d="M123.86 383.37h-23.79V401h23.04v5.86h-23.04v19.21h24.59v5.86h-40V377.5h39.21v5.87z" fill="#ffffff" data-color="1"></path>
        <path d="M186.23 404.68c0 3.73-.65 7.25-1.96 10.54-1.3 3.3-3.2 6.2-5.68 8.7-2.48 2.51-5.49 4.47-9.03 5.88-3.54 1.42-7.51 2.12-11.92 2.12h-23.63V377.5h23.63c4.36 0 8.32.7 11.89 2.1 3.56 1.4 6.57 3.33 9.03 5.79 2.46 2.46 4.35 5.36 5.68 8.7 1.32 3.35 1.99 6.88 1.99 10.59zm-36.81 21.39h8.23c2.33 0 4.35-.55 6.07-1.64 1.72-1.09 3.13-2.61 4.25-4.57 1.12-1.96 1.94-4.22 2.46-6.79.53-2.57.79-5.37.79-8.4 0-2.91-.28-5.65-.83-8.23-.55-2.58-1.38-4.84-2.48-6.79-1.1-1.94-2.51-3.48-4.23-4.61-1.72-1.13-3.73-1.69-6.03-1.69h-8.23v42.72z" fill="#ffffff" data-color="1"></path>
        <path d="M212.01 377.5h11.54l23.08 54.43h-16.01l-6.92-16.16h-21.95l-6.84 16.16h-6.02l23.12-54.43zm.75 12.41l-8.53 20h17.06l-8.53-20z" fill="#ffffff" data-color="1"></path>
        <path d="M264.87 462.97v-30.76h6.21v12.11h12.17v-12.11h6.21v30.76h-6.21v-13.45h-12.17v13.45h-6.21z" fill="#ffffff" data-color="1"></path>
        <path d="M300.25 447.49l-5.35-.97c.6-2.15 1.64-3.75 3.11-4.78 1.47-1.04 3.65-1.55 6.55-1.55 2.63 0 4.59.31 5.88.93 1.29.62 2.19 1.41 2.72 2.37s.79 2.72.79 5.28l-.06 6.88c0 1.96.09 3.4.28 4.33.19.93.54 1.93 1.06 2.99h-5.83c-.15-.39-.34-.97-.57-1.74-.1-.35-.17-.58-.21-.69-1.01.98-2.09 1.71-3.23 2.2-1.15.49-2.37.73-3.67.73-2.29 0-4.1-.62-5.42-1.87-1.32-1.25-1.98-2.82-1.98-4.72 0-1.26.3-2.38.9-3.37s1.44-1.74 2.53-2.27c1.08-.52 2.65-.98 4.69-1.37 2.76-.52 4.67-1 5.73-1.45v-.59c0-1.13-.28-1.94-.84-2.42-.56-.48-1.62-.72-3.17-.72-1.05 0-1.87.21-2.45.62-.62.42-1.1 1.14-1.46 2.18zm7.89 4.78c-.76.25-1.95.55-3.59.9s-2.71.69-3.21 1.03c-.77.55-1.15 1.24-1.15 2.08 0 .83.31 1.54.92 2.14.62.6 1.4.9 2.35.9 1.06 0 2.08-.35 3.04-1.05.71-.53 1.18-1.18 1.41-1.95.15-.5.23-1.46.23-2.88v-1.17z" fill="#ffffff" data-color="1"></path>
        <path d="M317.37 462.97v-4.6l8.35-9.59c1.37-1.57 2.39-2.68 3.04-3.34-.69.04-1.59.07-2.71.08l-7.87.04v-4.89h18.42v4.18l-8.52 9.82-3 3.25c1.64-.1 2.65-.15 3.04-.15h9.13v5.18h-19.88z" fill="#ffffff" data-color="1"></path>
        <path d="M345.64 447.49l-5.35-.97c.6-2.15 1.64-3.75 3.11-4.78 1.47-1.04 3.65-1.55 6.55-1.55 2.63 0 4.59.31 5.88.93 1.29.62 2.19 1.41 2.72 2.37s.79 2.72.79 5.28l-.06 6.88c0 1.96.09 3.4.28 4.33.19.93.54 1.93 1.06 2.99h-5.83c-.15-.39-.34-.97-.57-1.74-.1-.35-.17-.58-.21-.69-1.01.98-2.09 1.71-3.23 2.2-1.15.49-2.37.73-3.67.73-2.29 0-4.1-.62-5.42-1.87-1.32-1.25-1.98-2.82-1.98-4.72 0-1.26.3-2.38.9-3.37.6-.99 1.44-1.74 2.53-2.27 1.08-.52 2.65-.98 4.69-1.37 2.76-.52 4.67-1 5.73-1.45v-.59c0-1.13-.28-1.94-.84-2.42-.56-.48-1.62-.72-3.17-.72-1.05 0-1.87.21-2.45.62-.62.42-1.1 1.14-1.46 2.18zm7.89 4.78c-.76.25-1.95.55-3.59.9s-2.71.69-3.21 1.03c-.77.55-1.15 1.24-1.15 2.08 0 .83.31 1.54.92 2.14s1.4.9 2.35.9c1.06 0 2.08-.35 3.04-1.05.71-.53 1.18-1.18 1.41-1.95.15-.5.23-1.46.23-2.88v-1.17z" fill="#ffffff" data-color="1"></path>
        <path d="M370.78 462.97h-5.9v-22.28h5.48v3.17c.94-1.5 1.78-2.48 2.53-2.96.75-.48 1.6-.71 2.55-.71 1.34 0 2.64.37 3.88 1.11l-1.83 5.14c-.99-.64-1.92-.97-2.77-.97-.83 0-1.53.23-2.1.68-.57.46-1.03 1.28-1.35 2.47-.33 1.19-.49 3.68-.49 7.47v6.88z" fill="#ffffff" data-color="1"></path>
        <path d="M402.29 462.97h-5.48v-3.27c-.91 1.27-1.98 2.22-3.22 2.84s-2.49.93-3.75.93c-2.56 0-4.75-1.03-6.58-3.1-1.83-2.06-2.74-4.94-2.74-8.63 0-3.78.89-6.65 2.66-8.61 1.78-1.96 4.02-2.95 6.74-2.95 2.49 0 4.64 1.04 6.46 3.11v-11.08h5.9v30.76zm-15.73-11.62c0 2.38.33 4.1.99 5.16.95 1.54 2.28 2.31 3.99 2.31 1.36 0 2.51-.58 3.46-1.73.95-1.15 1.43-2.88 1.43-5.17 0-2.56-.46-4.4-1.38-5.53-.92-1.13-2.11-1.69-3.55-1.69-1.4 0-2.57.56-3.52 1.67-.95 1.11-1.42 2.77-1.42 4.98z" fill="#ffffff" data-color="1"></path>
        <path d="M439.77 451.66l6.02 1.91c-.92 3.36-2.46 5.85-4.61 7.48-2.15 1.63-4.87 2.44-8.17 2.44-4.08 0-7.44-1.4-10.07-4.19-2.63-2.79-3.95-6.61-3.95-11.45 0-5.12 1.32-9.1 3.97-11.93 2.64-2.83 6.12-4.25 10.43-4.25 3.76 0 6.82 1.11 9.17 3.34 1.4 1.32 2.45 3.2 3.15 5.67l-6.15 1.47c-.36-1.59-1.12-2.85-2.28-3.78s-2.56-1.38-4.21-1.38c-2.28 0-4.13.82-5.55 2.45-1.42 1.64-2.13 4.29-2.13 7.95 0 3.89.7 6.66 2.1 8.31 1.4 1.65 3.22 2.48 5.46 2.48 1.65 0 3.07-.52 4.26-1.57 1.19-1.04 2.04-2.69 2.56-4.95z" fill="#ffffff" data-color="1"></path>
        <path d="M449.72 451.52c0-1.96.48-3.85 1.45-5.69.97-1.83 2.33-3.23 4.1-4.2 1.77-.97 3.75-1.45 5.93-1.45 3.37 0 6.13 1.1 8.29 3.28 2.15 2.19 3.23 4.96 3.23 8.3 0 3.37-1.09 6.17-3.26 8.38-2.18 2.22-4.91 3.33-8.21 3.33-2.04 0-3.99-.46-5.84-1.38-1.85-.92-3.26-2.28-4.23-4.06-.98-1.78-1.46-3.95-1.46-6.51zm6.04.31c0 2.21.52 3.9 1.57 5.08 1.05 1.18 2.34 1.76 3.88 1.76s2.83-.59 3.87-1.76 1.56-2.88 1.56-5.12c0-2.18-.52-3.86-1.56-5.04-1.04-1.17-2.33-1.76-3.87-1.76s-2.83.59-3.88 1.76-1.57 2.87-1.57 5.08z" fill="#ffffff" data-color="1"></path>
        <path d="M497.6 462.97h-5.9V451.6c0-2.41-.13-3.96-.38-4.67s-.66-1.25-1.23-1.65c-.57-.39-1.25-.59-2.05-.59-1.02 0-1.94.28-2.75.84a4.24 4.24 0 0 0-1.67 2.22c-.3.92-.45 2.63-.45 5.12v10.09h-5.9v-22.28h5.48v3.27c1.94-2.52 4.39-3.78 7.34-3.78 1.3 0 2.49.23 3.57.7 1.08.47 1.89 1.07 2.44 1.79.55.73.94 1.55 1.15 2.48.22.92.33 2.24.33 3.97v13.86z" fill="#ffffff" data-color="1"></path>
        <path d="M513.8 440.69v4.7h-4.03v8.98c0 1.82.04 2.88.12 3.18.08.3.25.55.52.75.27.2.61.29 1 .29.55 0 1.34-.19 2.37-.57l.5 4.57c-1.37.59-2.92.88-4.66.88-1.06 0-2.02-.18-2.88-.54-.85-.36-1.48-.82-1.88-1.38-.4-.57-.68-1.33-.83-2.3-.13-.69-.19-2.07-.19-4.16v-9.72h-2.71v-4.7h2.71v-4.43l5.92-3.44v7.87h4.04z" fill="#ffffff" data-color="1"></path>
        <path d="M523.54 462.97h-5.9v-22.28h5.48v3.17c.94-1.5 1.78-2.48 2.53-2.96.75-.48 1.6-.71 2.55-.71 1.34 0 2.64.37 3.88 1.11l-1.83 5.14c-.99-.64-1.92-.97-2.77-.97-.83 0-1.53.23-2.1.68-.57.46-1.03 1.28-1.35 2.47-.33 1.19-.49 3.68-.49 7.47v6.88z" fill="#ffffff" data-color="1"></path>
        <path d="M533.25 451.52c0-1.96.48-3.85 1.45-5.69.97-1.83 2.33-3.23 4.1-4.2 1.77-.97 3.75-1.45 5.93-1.45 3.37 0 6.13 1.1 8.29 3.28s3.23 4.96 3.23 8.3c0 3.37-1.09 6.17-3.26 8.38-2.18 2.22-4.91 3.33-8.22 3.33-2.04 0-3.99-.46-5.84-1.38-1.85-.92-3.26-2.28-4.23-4.06-.97-1.78-1.45-3.95-1.45-6.51zm6.05.31c0 2.21.52 3.9 1.57 5.08 1.05 1.18 2.34 1.76 3.88 1.76s2.83-.59 3.87-1.76 1.56-2.88 1.56-5.12c0-2.18-.52-3.86-1.56-5.04-1.04-1.17-2.33-1.76-3.87-1.76s-2.83.59-3.88 1.76-1.57 2.87-1.57 5.08z" fill="#ffffff" data-color="1"></path>
        <path d="M560.87 462.97v-30.76h5.9v30.76h-5.9z" fill="#ffffff" data-color="1"></path>
    </g>
</svg>